<?xml version="1.0" encoding="UTF-8"?>
<svg xmlns="http://www.w3.org/2000/svg" viewBox="0 0 1024 1024" width="1024" height="1024" role="img">
  <title>ACT app icon</title>
  <desc>Compass/hexaflex motif on warm sand background — represents connection, direction, presence.</desc>

  <rect x="0" y="0" width="1024" height="1024" rx="225" fill="#F5F0E8"/>

  <circle cx="512" cy="512" r="320" fill="none" stroke="#3B6D11" stroke-width="40"/>
  <circle cx="512" cy="512" r="60" fill="#3B6D11"/>

  <line x1="512" y1="172" x2="512" y2="100" stroke="#3B6D11" stroke-width="40" stroke-linecap="round"/>
  <circle cx="512" cy="80" r="34" fill="#639922"/>

  <line x1="752" y1="272" x2="800" y2="225" stroke="#3B6D11" stroke-width="40" stroke-linecap="round"/>
  <circle cx="814" cy="210" r="34" fill="#639922"/>

  <line x1="852" y1="512" x2="924" y2="512" stroke="#3B6D11" stroke-width="40" stroke-linecap="round"/>
  <circle cx="944" cy="512" r="34" fill="#639922"/>

  <line x1="752" y1="752" x2="800" y2="799" stroke="#3B6D11" stroke-width="40" stroke-linecap="round"/>
  <circle cx="814" cy="814" r="34" fill="#639922"/>

  <line x1="512" y1="852" x2="512" y2="924" stroke="#3B6D11" stroke-width="40" stroke-linecap="round"/>
  <circle cx="512" cy="944" r="34" fill="#639922"/>

  <line x1="272" y1="752" x2="225" y2="799" stroke="#3B6D11" stroke-width="40" stroke-linecap="round"/>
  <circle cx="210" cy="814" r="34" fill="#639922"/>

  <line x1="172" y1="512" x2="100" y2="512" stroke="#3B6D11" stroke-width="40" stroke-linecap="round"/>
  <circle cx="80" cy="512" r="34" fill="#639922"/>

  <line x1="272" y1="272" x2="225" y2="225" stroke="#3B6D11" stroke-width="40" stroke-linecap="round"/>
  <circle cx="210" cy="210" r="34" fill="#639922"/>
</svg>
